<?xml version="1.0" standalone="no"?>
<!DOCTYPE svg PUBLIC "-//W3C//DTD SVG 20010904//EN"
 "http://www.w3.org/TR/2001/REC-SVG-20010904/DTD/svg10.dtd">
<svg version="1.0" xmlns="http://www.w3.org/2000/svg"
 width="1000.000000pt" height="1000.000000pt" viewBox="0 0 1000.000000 1000.000000"
 preserveAspectRatio="xMidYMid meet">
<metadata>
Created by potrace 1.14, written by Peter Selinger 2001-2017
</metadata>
<g transform="translate(0.000000,1000.000000) scale(0.100000,-0.100000)"
fill="#000000" stroke="none">
<path d="M4545 9985 c-1109 -101 -2147 -565 -2950 -1318 -304 -285 -543 -565
-765 -897 -404 -605 -667 -1288 -779 -2023 -69 -451 -69 -1043 0 -1494 139
-916 507 -1736 1103 -2458 128 -154 487 -513 641 -641 722 -596 1542 -964
2458 -1103 451 -69 1043 -69 1494 0 1160 176 2182 728 2980 1608 717 790 1163
1819 1258 2899 19 217 19 667 0 884 -90 1022 -477 1961 -1139 2763 -128 154
-487 513 -641 641 -802 662 -1741 1049 -2763 1139 -205 18 -698 18 -897 0z
m2433 -4984 c1 -4 -653 -500 -1455 -1101 -802 -601 -1473 -1104 -1490 -1118
l-33 -24 0 2241 0 2241 1488 -1116 c818 -613 1488 -1119 1490 -1123z"/>
</g>
</svg>
